<svg width="117" height="117" viewBox="0 0 117 117" fill="none" xmlns="http://www.w3.org/2000/svg">
<g clip-path="url(#clip0_20_235)">
<path d="M106.941 104.149L91.4511 66.7547C91.0566 65.8023 89.9645 65.3495 89.0118 65.7443C88.0591 66.1391 87.6066 67.2312 88.0014 68.1836L102.004 101.989L89.2316 98.2885C88.3932 98.0453 87.4978 98.4162 87.0768 99.1812L80.662 110.83L65.637 74.5556C82.9786 71.2114 96.1185 55.922 96.1185 37.619C96.1187 16.8759 79.2431 0 58.5 0C37.7569 0 20.881 16.8759 20.881 37.619C20.881 46.0208 23.6501 53.7876 28.3232 60.0564L10.0592 104.149C9.78465 104.813 9.91434 105.574 10.393 106.109C10.8715 106.644 11.6146 106.857 12.3039 106.657L27.3727 102.291L34.9404 116.034C35.27 116.632 35.8981 117 36.5754 117C36.6098 117 36.6444 116.999 36.679 116.997C37.3957 116.957 38.026 116.511 38.3008 115.847L52.7729 80.9085C53.1675 79.9558 52.7152 78.8637 51.7625 78.4692C50.8098 78.0746 49.7177 78.5269 49.3232 79.4796L36.3374 110.83L29.9231 99.1812C29.5019 98.4162 28.606 98.0453 27.768 98.2885L14.9956 101.989L31.0264 63.2875C37.8965 70.6361 47.6702 75.2377 58.5 75.2377C59.6179 75.2377 60.7237 75.1857 61.817 75.0899L78.6994 115.847C78.974 116.511 79.6045 116.957 80.321 116.997C80.3558 116.999 80.3902 117 80.4248 117C81.1021 117 81.7302 116.632 82.0595 116.034L89.6274 102.291L104.696 106.657C105.386 106.857 106.128 106.644 106.607 106.109C107.086 105.574 107.215 104.813 106.941 104.149V104.149ZM24.615 37.619C24.615 18.9348 39.8158 3.73404 58.5 3.73404C77.1841 3.73404 92.3847 18.9348 92.3847 37.619C92.3847 56.3031 77.1841 71.5037 58.5 71.5037C39.8158 71.5037 24.615 56.3031 24.615 37.619V37.619Z" fill="#4BB1DF"/>
<path d="M80.0725 30.6095C79.8577 29.9479 79.2921 29.4605 78.6058 29.3452L66.0427 27.237L60.1556 15.9405C59.834 15.3234 59.196 14.9363 58.5 14.9363C57.8042 14.9363 57.1659 15.3234 56.8443 15.9405L50.957 27.237L38.3941 29.3452C37.7078 29.4602 37.1425 29.9476 36.9274 30.6095C36.7123 31.2715 36.8831 31.9979 37.3708 32.4945L46.2951 41.5844L44.4181 54.1841C44.3156 54.8724 44.6043 55.5604 45.1674 55.9697C45.73 56.3784 46.4741 56.4404 47.0969 56.1305L58.5 50.4518L69.9027 56.1305C70.1664 56.2617 70.4511 56.3264 70.7349 56.3264C71.1225 56.3264 71.5076 56.2059 71.8325 55.9699C72.3956 55.5607 72.6843 54.8726 72.5818 54.1843L70.7051 41.5846L79.6294 32.4945C80.1168 31.9979 80.2876 31.2715 80.0725 30.6095V30.6095ZM67.389 39.632C66.9787 40.05 66.7883 40.636 66.8747 41.215L68.3608 51.1908L59.3324 46.6948C59.07 46.5644 58.7852 46.4989 58.5 46.4989C58.2149 46.4989 57.9296 46.5641 57.6678 46.6948L48.6394 51.1908L50.1255 41.215C50.2119 40.636 50.0214 40.0497 49.6112 39.632L42.5451 32.4347L52.4919 30.7654C53.0694 30.6685 53.568 30.3063 53.8386 29.7871L58.5 20.843L63.1613 29.7873C63.4321 30.3066 63.9305 30.6688 64.508 30.7656L74.455 32.435L67.389 39.632V39.632Z" fill="#4BB1DF"/>
<path d="M86.7822 39.5021C85.7598 39.3655 84.8213 40.0854 84.6861 41.1078C82.9543 54.1787 71.6966 64.0358 58.5 64.0358C43.9338 64.0358 32.0832 52.1854 32.0832 37.6189C32.0832 23.0524 43.9338 11.2021 58.5 11.2021C71.6969 11.2021 82.9543 21.0589 84.6861 34.1301C84.8213 35.1525 85.7615 35.8729 86.7822 35.7357C87.8041 35.6003 88.5232 34.6618 88.3876 33.6397C86.411 18.7194 73.5622 7.46802 58.5 7.46802C41.8748 7.46802 28.3491 20.9935 28.3491 37.6189C28.3491 54.2444 41.8748 67.7696 58.5 67.7696C73.5622 67.7696 86.411 56.5182 88.3878 41.5979C88.5232 40.576 87.8043 39.6375 86.7822 39.5021V39.5021Z" fill="#4BB1DF"/>
</g>
<defs>
<clipPath id="clip0_20_235">
<rect width="117" height="117" fill="white"/>
</clipPath>
</defs>
</svg>
