<svg width="104" height="104" viewBox="0 0 104 104" fill="none" xmlns="http://www.w3.org/2000/svg">
<path d="M79.5596 53.2604H63.6434V41.9588C63.6434 36.7033 62.0838 32.8791 58.986 30.6145C54.1151 27.0468 47.4922 29.055 47.2145 29.1618C46.1463 29.5036 45.4199 30.4864 45.4199 31.5973V44.9925C45.4199 49.1371 43.433 52.6408 39.5234 55.4609C36.9811 57.2982 34.3747 58.2596 33.4561 58.5587C32.7724 57.5118 31.5974 56.8282 30.2515 56.8282H16.493C14.378 56.8282 12.6689 58.5587 12.6689 60.6523V98.1675C12.6689 100.283 14.3994 101.992 16.493 101.992H30.2515C31.1915 101.992 32.046 101.65 32.7297 101.094C34.7593 102.91 37.4298 104 40.3139 104H73.1077C76.355 104 79.2391 103.209 81.4396 101.735C84.2383 99.8553 85.9902 96.8216 86.4602 92.9975L90.7757 65.6302C90.8398 65.2243 90.8611 64.8397 90.8611 64.4551C90.6261 58.3023 85.5415 53.2604 79.5596 53.2604ZM28.9483 96.9071H17.7749V61.9769H28.9483V96.9071ZM85.7124 64.8611L81.3969 92.2711C81.3969 92.2924 81.3969 92.3352 81.3755 92.3565C81.1832 93.9802 80.5851 98.8939 73.1077 98.8939H40.3139C37.3229 98.8939 34.7593 96.7575 34.2038 93.8307C34.1824 93.7025 34.1397 93.5743 34.097 93.4461V63.7074C34.2252 63.686 34.3747 63.6647 34.5029 63.6219C34.6738 63.5792 38.5193 62.4897 42.3862 59.7337C47.7272 55.9523 50.5473 50.8463 50.5473 44.9925V33.691C52.0855 33.5201 54.3287 33.5414 55.9524 34.7378C57.6401 35.9769 58.516 38.4124 58.516 41.9375V55.8027C58.516 57.2127 59.6697 58.3664 61.0797 58.3664H79.5596C82.7855 58.3664 85.6056 61.2505 85.7338 64.6688C85.7338 64.6901 85.7338 64.7542 85.7124 64.8611Z" fill="#4BB1DF"/>
<path d="M54.3501 21.7058C55.7601 21.7058 56.9137 20.5522 56.9137 19.1422V2.56368C56.9137 1.15366 55.7601 0 54.3501 0C52.94 0 51.7864 1.15366 51.7864 2.56368V19.1208C51.7864 20.5522 52.94 21.7058 54.3501 21.7058Z" fill="#4BB1DF"/>
<path d="M69.6467 39.8012C69.6467 41.2113 70.8004 42.3649 72.2104 42.3649H88.7675C90.1775 42.3649 91.3312 41.2113 91.3312 39.8012C91.3312 38.3912 90.1775 37.2375 88.7675 37.2375H72.2104C70.8004 37.2375 69.6467 38.3912 69.6467 39.8012Z" fill="#4BB1DF"/>
<path d="M19.9113 42.3649H36.4684C37.8784 42.3649 39.0321 41.2113 39.0321 39.8012C39.0321 38.3912 37.8784 37.2375 36.4684 37.2375H19.9113C18.5013 37.2375 17.3476 38.3912 17.3476 39.8012C17.3476 41.2113 18.5013 42.3649 19.9113 42.3649Z" fill="#4BB1DF"/>
<path d="M26.9827 14.6344C27.6664 14.6344 28.3287 14.3567 28.7987 13.8867C29.2687 13.4167 29.5464 12.7544 29.5464 12.0708C29.5464 11.3871 29.2687 10.7248 28.7987 10.2548C28.3287 9.78481 27.6664 9.50708 26.9827 9.50708C26.2991 9.50708 25.6368 9.78481 25.1668 10.2548C24.6968 10.7248 24.4191 11.3871 24.4191 12.0708C24.4191 12.7544 24.6968 13.4167 25.1668 13.8867C25.6368 14.3781 26.2991 14.6344 26.9827 14.6344Z" fill="#4BB1DF"/>
<path d="M32.8365 20.4882C33.4988 20.4882 34.1397 20.2318 34.6524 19.7404C35.6565 18.7363 35.6565 17.1127 34.6524 16.1085C33.6483 15.1044 32.0246 15.1044 31.0205 16.1085C30.0164 17.1127 30.0164 18.7363 31.0205 19.7404C31.5119 20.2532 32.1742 20.4882 32.8365 20.4882Z" fill="#4BB1DF"/>
<path d="M38.6903 26.3632C39.3739 26.3632 40.0362 26.0855 40.5062 25.6155C40.9762 25.1455 41.2539 24.4832 41.2539 23.7995C41.2539 23.1159 40.9762 22.4536 40.5062 21.9836C40.0362 21.5136 39.3739 21.2358 38.6903 21.2358C38.0066 21.2358 37.3443 21.5136 36.8743 21.9836C36.4043 22.4536 36.1266 23.1159 36.1266 23.7995C36.1266 24.4832 36.4043 25.1455 36.8743 25.6155C37.3443 26.0855 38.0066 26.3632 38.6903 26.3632Z" fill="#4BB1DF"/>
<path d="M79.9655 15.8307C80.6492 15.8307 81.3115 15.553 81.7815 15.083C82.2515 14.613 82.5292 13.9507 82.5292 13.2671C82.5292 12.5834 82.2515 11.9211 81.7815 11.4511C81.3115 10.9811 80.6492 10.7034 79.9655 10.7034C79.2819 10.7034 78.6196 10.9811 78.1496 11.4511C77.6796 11.9211 77.4019 12.5834 77.4019 13.2671C77.4019 13.9507 77.6796 14.613 78.1496 15.083C78.6196 15.5744 79.2819 15.8307 79.9655 15.8307Z" fill="#4BB1DF"/>
<path d="M74.1118 21.7059C74.774 21.7059 75.415 21.4496 75.9277 20.9582C76.9318 19.9541 76.9318 18.3304 75.9277 17.3263C74.9236 16.3222 73.2999 16.3222 72.2958 17.3263C71.2917 18.3304 71.2917 19.9541 72.2958 20.9582C72.7872 21.4496 73.4495 21.7059 74.1118 21.7059Z" fill="#4BB1DF"/>
<path d="M68.258 27.5595C68.9417 27.5595 69.604 27.2818 70.074 26.8118C70.544 26.3417 70.8217 25.6795 70.8217 24.9958C70.8217 24.3122 70.544 23.6499 70.074 23.1799C69.604 22.7099 68.9417 22.4321 68.258 22.4321C67.5744 22.4321 66.9121 22.7099 66.4421 23.1799C65.9721 23.6499 65.6943 24.3122 65.6943 24.9958C65.6943 25.6795 65.9721 26.3417 66.4421 26.8118C66.9121 27.2818 67.5744 27.5595 68.258 27.5595Z" fill="#4BB1DF"/>
</svg>
