<svg width="107" height="107" viewBox="0 0 107 107" fill="none" xmlns="http://www.w3.org/2000/svg">
<path d="M33.3942 64.7085H22.1753C22.7762 62.5942 24.5945 61.5558 27.3947 60.1255C30.8398 58.3661 35.1274 56.1761 35.1274 49.9181C35.1274 44.8209 31.3953 40.6741 26.8077 40.6741C22.2201 40.6741 18.488 44.8209 18.488 49.9181C18.488 50.8752 19.264 51.6514 20.2213 51.6514C21.1785 51.6514 21.9547 50.8754 21.9547 49.9181C21.9547 46.7323 24.1316 44.1405 26.8077 44.1405C29.4839 44.1405 31.6607 46.7323 31.6607 49.9181C31.6607 53.8545 29.4405 55.1882 25.8177 57.0386C22.5521 58.7065 18.4878 60.7823 18.4878 66.4418C18.4878 67.399 19.2638 68.1752 20.2211 68.1752H33.3938C34.351 68.1752 35.1271 67.3992 35.1271 66.4418C35.1274 65.4845 34.3514 64.7085 33.3942 64.7085Z" fill="#4BB1DF"/>
<path d="M97.1752 86.9206L94.3832 88.0121C102.552 78.375 107 66.2986 107 53.5C107 39.2096 101.435 25.7745 91.3301 15.6699C81.2251 5.56525 67.7903 0 53.5 0C42.5164 0 31.9623 3.30383 22.9787 9.55456C22.1929 10.1013 21.9992 11.1815 22.5459 11.9673C23.0924 12.7529 24.1726 12.947 24.9586 12.4001C33.3583 6.55563 43.2278 3.46642 53.5 3.46642C66.8643 3.46642 79.4289 8.67076 88.8792 18.1208C98.3292 27.5711 103.534 40.1354 103.534 53.5C103.534 65.8961 99.072 77.5677 90.9046 86.7306L91.5993 82.4209C91.7517 81.4759 91.1092 80.5863 90.1642 80.4339C89.2196 80.2807 88.3295 80.924 88.1772 81.869L86.5452 91.9924C86.4464 92.6064 86.684 93.2265 87.1678 93.6171C87.4809 93.8699 87.8664 94.0016 88.2566 94.0016C88.4689 94.0016 88.6831 93.9625 88.8875 93.8825L98.4379 90.149C99.3292 89.8004 99.7696 88.7952 99.421 87.9036C99.072 87.0123 98.0667 86.5718 97.1752 86.9206Z" fill="#4BB1DF"/>
<path d="M70.6873 35.2164C69.7795 34.9136 68.7977 35.4045 68.4948 36.3127L57.402 69.5914C57.0991 70.4995 57.59 71.4811 58.4983 71.7839C58.6801 71.8443 58.8651 71.8731 59.0467 71.8731C59.7723 71.8731 60.4485 71.4138 60.6907 70.6875L71.7836 37.4089C72.0864 36.5008 71.5955 35.5192 70.6873 35.2164Z" fill="#4BB1DF"/>
<path d="M90.0873 41.473C89.7688 40.975 89.2183 40.6738 88.6273 40.6738H75.6858C74.7286 40.6738 73.9525 41.4498 73.9525 42.4071C73.9525 43.3643 74.7284 44.1405 75.6858 44.1405H85.9185L75.9608 65.7154C75.5598 66.5845 75.9391 67.6144 76.8082 68.0155C77.0435 68.1241 77.2904 68.1753 77.5334 68.1753C78.1886 68.1753 78.8155 67.8019 79.1081 67.168L90.201 43.1336C90.4486 42.5969 90.4058 41.9708 90.0873 41.473Z" fill="#4BB1DF"/>
<path d="M53.5 59.1621H51.5355V42.4072C51.5355 41.4501 50.7596 40.6739 49.8022 40.6739C48.8451 40.6739 48.0689 41.4498 48.0689 42.4072V59.1621H40.8234L44.1064 42.7472C44.2942 41.8085 43.6855 40.8954 42.7467 40.7077C41.8071 40.5203 40.8949 41.1288 40.7072 42.0676L37.0097 60.5558C36.9079 61.0649 37.0398 61.593 37.3687 61.9947C37.6981 62.3963 38.1898 62.6292 38.7091 62.6292H48.0687V66.4423C48.0687 67.3994 48.8447 68.1756 49.802 68.1756C50.7592 68.1756 51.5353 67.3996 51.5353 66.4423V62.6285H53.4998C54.4569 62.6285 55.2331 61.8526 55.2331 60.8952C55.2333 59.9381 54.4571 59.1621 53.5 59.1621Z" fill="#4BB1DF"/>
<path d="M84.4531 95.0336C83.9066 94.2476 82.8261 94.0537 82.0406 94.6006C73.6409 100.445 63.7718 103.534 53.5 103.534C40.1357 103.534 27.5711 98.3293 18.1208 88.8792C8.67097 79.429 3.46642 66.8644 3.46642 53.5001C3.46642 41.1042 7.92803 29.4326 16.0951 20.2697L15.3495 24.8949C15.1971 25.84 15.8396 26.7296 16.7846 26.882C16.878 26.897 16.9708 26.9043 17.0625 26.9043C17.8983 26.9043 18.6343 26.2983 18.7716 25.4469L20.4546 15.0077C20.5534 14.3937 20.3158 13.7736 19.832 13.383C19.3482 12.9924 18.6918 12.8911 18.1125 13.1174L8.26471 16.9673C7.37339 17.3159 6.93306 18.3211 7.28164 19.2126C7.63023 20.104 8.63544 20.5443 9.52697 20.1957L12.6168 18.9878C4.44823 28.6251 0 40.7015 0 53.5001C0 67.7904 5.56484 81.2256 15.6699 91.3302C25.7749 101.435 39.2096 107 53.5 107C64.4832 107 75.0369 103.696 84.0203 97.4461C84.8059 96.8997 84.9998 95.8192 84.4531 95.0336Z" fill="#4BB1DF"/>
</svg>
